<svg xmlns="http://www.w3.org/2000/svg" viewBox="0 0 358.76 185.64"><defs><style>.cls-1{fill:#ffc;}</style></defs><g id="Layer_2" data-name="Layer 2"><g id="Layer_1-2" data-name="Layer 1"><rect class="cls-1" width="358.76" height="185.64"/><path d="M25.56,33.33,40,65H35.59l-3.54-7.8H19.12L15.62,65H11.29Zm0,9.51L20.67,53.71h9.81Z"/><path d="M43.54,33.28,66.08,56.45v-22h4.16V66.39L47.7,43.33V65H43.54Z"/><path d="M76.51,34.5H83.9q8.79,0,13.07,4.64a15.23,15.23,0,0,1,4.28,10.6,14.88,14.88,0,0,1-4.43,10.62Q92.4,65,84,65H76.51Zm4.16,4.07v22.3h.24a43,43,0,0,0,7-.42,11.68,11.68,0,0,0,4.45-1.83,10.21,10.21,0,0,0,3.35-3.75,10.69,10.69,0,0,0,1.24-5.13,10.89,10.89,0,0,0-2-6.36,9.82,9.82,0,0,0-4.75-3.83,23,23,0,0,0-7.43-1Z"/><path d="M106.7,34.5h6.61a12.55,12.55,0,0,1,8,2.45,7.66,7.66,0,0,1,3.1,6.28,8.13,8.13,0,0,1-2,5.41,11.22,11.22,0,0,1-6.25,3.3L125,65h-4.78L111.8,52.45h-.93V65H106.7Zm4.17,3.69V48.81q9.21.19,9.21-5.34A4.63,4.63,0,0,0,119,40.3a5.38,5.38,0,0,0-2.87-1.67A23.24,23.24,0,0,0,110.87,38.19Z"/><path d="M129.29,49.56a15,15,0,0,1,5-11.31,16.76,16.76,0,0,1,12-4.71A16.39,16.39,0,0,1,158,38.29a15.13,15.13,0,0,1,4.92,11.27A15.73,15.73,0,0,1,158,61.24a17.25,17.25,0,0,1-23.85,0A15.71,15.71,0,0,1,129.29,49.56Zm29.19.19a11.23,11.23,0,0,0-3.64-8.49,12.47,12.47,0,0,0-9-3.46,11.94,11.94,0,0,0-8.65,3.52,11.35,11.35,0,0,0-3.6,8.43,11.14,11.14,0,0,0,3.7,8.45,12.73,12.73,0,0,0,9.06,3.46,11.7,11.7,0,0,0,8.5-3.53A11.34,11.34,0,0,0,158.48,49.75Z"/><path d="M168.1,33.28l22.53,23.17v-22h4.17V66.39L172.26,43.33V65H168.1Z"/><path d="M201,34.5h4.11V65H201Z"/><path d="M211.76,34.5h4.16V46.88L228.85,34.5h5.81L219.93,48.65,234.75,65h-5.3L215.92,50.11V65h-4.16Z"/><path d="M236.55,49.56a15,15,0,0,1,5-11.31,16.8,16.8,0,0,1,12-4.71,16.39,16.39,0,0,1,11.75,4.75,15.13,15.13,0,0,1,4.92,11.27,15.73,15.73,0,0,1-4.86,11.68,17.25,17.25,0,0,1-23.85,0A15.71,15.71,0,0,1,236.55,49.56Zm29.19.19a11.23,11.23,0,0,0-3.64-8.49,12.47,12.47,0,0,0-9-3.46,11.93,11.93,0,0,0-8.65,3.52,11.35,11.35,0,0,0-3.6,8.43,11.14,11.14,0,0,0,3.7,8.45,12.73,12.73,0,0,0,9.06,3.46,11.7,11.7,0,0,0,8.5-3.53A11.34,11.34,0,0,0,265.74,49.75Z"/><path d="M272.08,34.55h4.39l9.58,21.59,9.64-21.59h4.43L286,66Z"/><path d="M312.17,33.33,326.56,65h-4.37l-3.53-7.8H305.72l-3.5,7.8h-4.33Zm0,9.51-4.88,10.87h9.8Z"/><path d="M14.23,93.3h7.39q8.79,0,13.07,4.64A15.23,15.23,0,0,1,39,108.54a14.92,14.92,0,0,1-4.43,10.63q-4.42,4.6-12.87,4.61H14.23Zm4.16,4.07v22.3h.24a42.86,42.86,0,0,0,7-.42,11.62,11.62,0,0,0,4.45-1.83,10.21,10.21,0,0,0,3.35-3.75,10.69,10.69,0,0,0,1.24-5.13,10.89,10.89,0,0,0-2-6.36,9.82,9.82,0,0,0-4.75-3.83,23,23,0,0,0-7.43-1Z"/><path d="M54.17,92.13l14.4,31.65H64.2L60.67,116H47.73l-3.5,7.8H39.9Zm0,9.51-4.87,10.87h9.8Z"/><path d="M73,93.3h6.6a12.58,12.58,0,0,1,8,2.45,7.66,7.66,0,0,1,3.1,6.28,8.09,8.09,0,0,1-2,5.41,11.19,11.19,0,0,1-6.25,3.3l8.86,13H86.59l-8.45-12.53H77.2v12.53H73ZM77.2,97v10.62q9.21.19,9.21-5.34a4.63,4.63,0,0,0-1.07-3.17,5.42,5.42,0,0,0-2.87-1.67A23.28,23.28,0,0,0,77.2,97Z"/><path d="M96.82,93.3h4.12v30.48H96.82Z"/><path d="M119,92.13l14.39,31.65H129L125.5,116H112.57l-3.5,7.8h-4.33Zm0,9.51-4.87,10.87h9.8Z"/></g></g></svg>