<svg xmlns="http://www.w3.org/2000/svg" viewBox="0 0 403.76 185.64"><defs><style>.cls-1{fill:#ffc;}</style></defs><g id="Layer_2" data-name="Layer 2"><g id="Layer_1-2" data-name="Layer 1"><rect class="cls-1" width="403.76" height="185.64"/><path d="M26.4,33.49,44,72.25H38.68L34.35,62.7H18.51l-4.28,9.55H8.93Zm0,11.65-6,13.31h12Z"/><path d="M48.42,33.43,76,61.8V34.93h5.1V74L53.52,45.74V72.25h-5.1Z"/><path d="M88.79,34.93h9q10.75,0,16,5.68a18.59,18.59,0,0,1,5.24,13,18.24,18.24,0,0,1-5.42,13q-5.41,5.66-15.76,5.65H88.79Zm5.1,5v27.3h.29a53.07,53.07,0,0,0,8.56-.51,14.24,14.24,0,0,0,5.45-2.24,12.56,12.56,0,0,0,4.1-4.59,13.72,13.72,0,0,0-.91-14.07,12,12,0,0,0-5.82-4.69,27.9,27.9,0,0,0-9.09-1.2Z"/><path d="M125.76,34.93h8.09a15.38,15.38,0,0,1,9.83,3,9.37,9.37,0,0,1,3.79,7.69A9.93,9.93,0,0,1,145,52.24q-2.46,2.86-7.66,4l10.85,16h-5.85L132,56.9h-1.14V72.25h-5.1Zm5.1,4.51v13q11.28.22,11.28-6.54A5.69,5.69,0,0,0,140.82,42,6.67,6.67,0,0,0,137.31,40,29,29,0,0,0,130.86,39.44Z"/><path d="M153.42,53.37a18.41,18.41,0,0,1,6.09-13.85,20.59,20.59,0,0,1,14.65-5.76,20,20,0,0,1,14.39,5.81,18.51,18.51,0,0,1,6,13.8,19.26,19.26,0,0,1-6,14.3,21.11,21.11,0,0,1-29.19,0A19.22,19.22,0,0,1,153.42,53.37Zm35.74.23a13.78,13.78,0,0,0-4.45-10.4,15.31,15.31,0,0,0-11-4.23,14.61,14.61,0,0,0-10.59,4.3,13.92,13.92,0,0,0-4.41,10.33A13.62,13.62,0,0,0,163.28,64a15.63,15.63,0,0,0,11.09,4.23,14.32,14.32,0,0,0,10.41-4.32A13.92,13.92,0,0,0,189.16,53.6Z"/><path d="M200.94,33.43l27.6,28.37V34.93h5.09V74L206,45.74V72.25h-5.1Z"/><path d="M241.16,34.93h5V72.25h-5Z"/><path d="M254.41,34.93h5.09V50.09l15.84-15.16h7.1l-18,17.32,18.16,20h-6.49L259.5,54V72.25h-5.09Z"/><path d="M284.76,53.37a18.41,18.41,0,0,1,6.09-13.85,20.57,20.57,0,0,1,14.65-5.76,20,20,0,0,1,14.38,5.81,18.48,18.48,0,0,1,6,13.8,19.26,19.26,0,0,1-6,14.3,21.12,21.12,0,0,1-29.2,0A19.25,19.25,0,0,1,284.76,53.37Zm35.74.23a13.78,13.78,0,0,0-4.45-10.4,15.31,15.31,0,0,0-11-4.23,14.61,14.61,0,0,0-10.59,4.3,13.92,13.92,0,0,0-4.41,10.33A13.62,13.62,0,0,0,294.62,64a15.62,15.62,0,0,0,11.09,4.23,14.32,14.32,0,0,0,10.41-4.32A13.92,13.92,0,0,0,320.5,53.6Z"/><path d="M328.26,35h5.39l11.72,26.43L357.17,35h5.43L345.3,73.51Z"/><path d="M377.35,33.49,395,72.25h-5.34L385.3,62.7H369.46l-4.28,9.55h-5.3Zm0,11.65-6,13.31h12Z"/><path d="M249,106.93h9.06q10.75,0,16,5.68a18.6,18.6,0,0,1,5.25,13,18.28,18.28,0,0,1-5.42,13q-5.43,5.66-15.76,5.65H249Zm5.1,5v27.3h.3a52.92,52.92,0,0,0,8.55-.51,14.24,14.24,0,0,0,5.45-2.24,12.38,12.38,0,0,0,4.1-4.59,13.08,13.08,0,0,0,1.52-6.28,13.3,13.3,0,0,0-2.43-7.79,12,12,0,0,0-5.81-4.69,28,28,0,0,0-9.1-1.2Z"/><path d="M298,105.49l17.62,38.76h-5.34l-4.33-9.55H290.07l-4.29,9.55h-5.3Zm0,11.65-6,13.31h12Z"/><path d="M321.06,106.93h8.08a15.36,15.36,0,0,1,9.83,3,9.38,9.38,0,0,1,3.8,7.69,9.88,9.88,0,0,1-2.46,6.62q-2.46,2.87-7.65,4l10.84,16h-5.85L327.3,128.9h-1.15v15.35h-5.09Zm5.09,4.51v13q11.28.22,11.28-6.54a5.73,5.73,0,0,0-1.31-3.88,6.7,6.7,0,0,0-3.52-2A28.91,28.91,0,0,0,326.15,111.44Z"/><path d="M350.18,106.93h5v37.32h-5Z"/><path d="M377.35,105.49,395,144.25h-5.34l-4.33-9.55H369.46l-4.28,9.55h-5.3Zm0,11.65-6,13.31h12Z"/></g></g></svg>