<svg xmlns="http://www.w3.org/2000/svg" viewBox="0 0 384.25 93.47"><g id="Layer_2" data-name="Layer 2"><g id="Layer_1-2" data-name="Layer 1"><path d="M17.94,7.09h1.51q3.24,8.31,8,18.83L33,38.1a2.87,2.87,0,0,0,.84,1,26.36,26.36,0,0,0,3.51,1.15v1.41c-2.9-.18-5-.26-6.41-.26s-3.79.08-7.18.26V40.21a12.8,12.8,0,0,0,3.38-1,1,1,0,0,0,.48-.84,5.25,5.25,0,0,0-.51-1.7l-2.43-5.83c-3.38,0-5.84-.05-7.38-.05l-6.55.05L8.21,36.93a7,7,0,0,0-.63,1.82.59.59,0,0,0,.3.51,14.28,14.28,0,0,0,2.79.73l.74.22v1.41c-2.72-.18-4.65-.26-5.76-.26-1.42,0-3.24.08-5.46.26V40.21a8.51,8.51,0,0,0,3-1.08A5.32,5.32,0,0,0,4.43,37.6q1.37-2.37,6.93-15.24Zm-6.3,21.39c2.21.07,3.8.1,4.76.1l7.33-.1L17.68,14.13Z" transform="translate(-0.19 -6.95)"/><path d="M37.78,9.08V7.67c2,.17,3.61.26,4.77.26.94,0,2.62-.09,5-.26l6.79,8.49q.94,1.13,14.41,17.44c0-2.23,0-3.85,0-4.85q0-3.57-.21-13a42.79,42.79,0,0,0-.23-4.81,1.49,1.49,0,0,0-.55-.7,13.76,13.76,0,0,0-3.34-.86c-.26-.05-.63-.13-1.12-.26V7.67q4.24.25,6.77.26t6.74-.26V9.08c-.43.11-.75.18-1,.21a24.11,24.11,0,0,0-3.57.89,1.18,1.18,0,0,0-.43.43,3.55,3.55,0,0,0-.33,1.44q0,.45-.11,6.52T71.39,30.3q0,6.71.24,11.32l-1.55.72-10-12.4L47,14.19l.12,14.15q.12,9.29.27,9.9a1.37,1.37,0,0,0,.43.75,9.72,9.72,0,0,0,3.56,1c.24,0,.6.11,1.08.22v1.41c-2.44-.18-4.5-.26-6.17-.26-1.41,0-3.86.08-7.35.26V40.21l1.27-.29A9.33,9.33,0,0,0,43.55,39a1.36,1.36,0,0,0,.38-.74,76.78,76.78,0,0,0,.33-8.33q.12-10.25.12-12.11a59.24,59.24,0,0,0-.17-6.67,1.2,1.2,0,0,0-.62-.8,22.47,22.47,0,0,0-4.52-1C38.78,9.29,38.35,9.21,37.78,9.08Z" transform="translate(-0.19 -6.95)"/><path d="M78.76,9.08V7.67q4.74.25,10.32.26l10.67-.14a20.19,20.19,0,0,1,8.67,1.56,11.11,11.11,0,0,1,5,5,17,17,0,0,1,1.79,8,18.36,18.36,0,0,1-5.69,13.83q-5.7,5.46-15.29,5.46c-.37,0-1.83-.05-4.38-.14s-4-.13-4.5-.13q-2.33,0-6.63.29V40.21c2.6-.5,4-.79,4.35-.89a1.66,1.66,0,0,0,.63-.33,1,1,0,0,0,.26-.53,35.06,35.06,0,0,0,.17-4.07c.1-5.18.14-8.95.14-11.31L84.17,12.6l0-.82q0-1.18-.69-1.53A36.6,36.6,0,0,0,78.76,9.08ZM89,38.77a54.41,54.41,0,0,0,6.51.48,15.09,15.09,0,0,0,6.74-1.32A13.08,13.08,0,0,0,108,32.29a19.16,19.16,0,0,0,2-9.12,18.85,18.85,0,0,0-.66-5.15,10.56,10.56,0,0,0-1.76-3.72,10.17,10.17,0,0,0-4.19-3.15,19.87,19.87,0,0,0-7.46-1.09c-2,0-4.28.12-6.94.36q-.15,6.28-.14,14.26Q88.84,33.1,89,38.77Z" transform="translate(-0.19 -6.95)"/><path d="M118.38,9.08V7.67q6.34.25,10.17.26c1.47,0,2.84,0,4.12,0,1.69-.06,2.86-.09,3.52-.09q4.67,0,7,2.2a7.9,7.9,0,0,1,2.34,6,9.18,9.18,0,0,1-1.06,4.48,9.28,9.28,0,0,1-3.08,3.29,14.74,14.74,0,0,1-4.16,1.7l8,10.38a25,25,0,0,0,1.86,2.28,5.44,5.44,0,0,0,1.56.86,34.38,34.38,0,0,0,4.52,1.22v1.41c-2.52-.18-4.35-.26-5.5-.26a31.68,31.68,0,0,0-4.07.26q-1.08-1.8-2.92-4.51c-1.22-1.81-2-2.88-2.25-3.22a6.7,6.7,0,0,1-.45-.6l-5.26-7.22c-1.42,0-2.86-.14-4.31-.31l.19,12.05a1.58,1.58,0,0,0,.43,1.08,10.51,10.51,0,0,0,3.59,1c.29,0,.73.14,1.32.29v1.41c-2.89-.18-5.43-.26-7.64-.26-2.36,0-5,.08-7.92.26V40.21l1-.22a12.72,12.72,0,0,0,3.89-1.06,2.18,2.18,0,0,0,.54-1.5q0-.69.12-12.3l-.1-11.24a20.62,20.62,0,0,0-.13-3,.93.93,0,0,0-.46-.57,12.57,12.57,0,0,0-3.71-1Zm10,14.64a38.24,38.24,0,0,0,3.85.27q4.35,0,6.45-1.95a7,7,0,0,0,2.09-5.39A6.24,6.24,0,0,0,139,11.88a7.63,7.63,0,0,0-5.4-1.75c-.84,0-2.51.1-5,.29Z" transform="translate(-0.19 -6.95)"/><path d="M152.55,24.87A17.4,17.4,0,0,1,157.61,12a17.64,17.64,0,0,1,13-5Q178,7,182.39,11.4t4.37,12.25q0,8.67-4.92,13.67t-13,5q-7.55,0-11.93-4.55T152.55,24.87Zm5.24-.71q0,7.9,3.46,11.87A11.1,11.1,0,0,0,170,40a10.73,10.73,0,0,0,6.2-1.84,11.25,11.25,0,0,0,4.09-5.4,21.36,21.36,0,0,0,1.39-7.87,20.18,20.18,0,0,0-1.77-9,11.82,11.82,0,0,0-4.38-5.11,11.86,11.86,0,0,0-12.25.34,10.82,10.82,0,0,0-4.15,5.43A21.46,21.46,0,0,0,157.79,24.16Z" transform="translate(-0.19 -6.95)"/><path d="M189.06,9.08V7.67c2,.17,3.61.26,4.78.26.93,0,2.61-.09,5-.26l6.8,8.49,14.4,17.44c0-2.23,0-3.85,0-4.85q0-3.57-.21-13a42.79,42.79,0,0,0-.23-4.81,1.49,1.49,0,0,0-.55-.7,13.76,13.76,0,0,0-3.34-.86c-.25-.05-.63-.13-1.12-.26V7.67c2.84.17,5.09.26,6.77.26s3.88-.09,6.75-.26V9.08q-.65.16-1,.21a24.11,24.11,0,0,0-3.57.89,1.26,1.26,0,0,0-.43.43,3.55,3.55,0,0,0-.33,1.44c0,.3-.05,2.47-.11,6.52s-.08,8-.08,11.73q0,6.71.24,11.32l-1.56.72-10-12.4L198.3,14.19l.12,14.15c.08,6.19.16,9.49.26,9.9a1.43,1.43,0,0,0,.43.75,9.73,9.73,0,0,0,3.57,1c.23,0,.59.11,1.07.22v1.41c-2.44-.18-4.5-.26-6.17-.26-1.4,0-3.85.08-7.35.26V40.21l1.27-.29a9.25,9.25,0,0,0,3.33-.93,1.36,1.36,0,0,0,.38-.74,78.32,78.32,0,0,0,.34-8.33q.12-10.25.12-12.11a62.19,62.19,0,0,0-.17-6.67,1.23,1.23,0,0,0-.62-.8,22.67,22.67,0,0,0-4.53-1C190.07,9.29,189.64,9.21,189.06,9.08Z" transform="translate(-0.19 -6.95)"/><path d="M245.67,7.67V9.08c-.56.13-1,.21-1.24.26-2.13.37-3.35.72-3.69,1a3.28,3.28,0,0,0-.5,2.19v.84L240.12,23l.07,14a3.06,3.06,0,0,0,.49,2.13c.33.3,1.45.57,3.36.79.37,0,.9.14,1.61.29v1.41c-2.57-.18-5-.26-7.42-.26s-5.15.08-8.09.26V40.21a8.13,8.13,0,0,1,1.05-.24c2.27-.37,3.57-.71,3.89-1a3.59,3.59,0,0,0,.49-2.36l0-1.19.07-8.78q0-13.55-.07-15a1.77,1.77,0,0,0-.52-1.22,10.79,10.79,0,0,0-3.61-1l-1.26-.31V7.67q5.21.25,8.13.26Q241.52,7.93,245.67,7.67Z" transform="translate(-0.19 -6.95)"/><path d="M247.58,9.08V7.67c3.41.17,5.87.26,7.41.26l1.51,0,6.61-.24V9.08l-1,.21a22.25,22.25,0,0,0-3.69.88,1.2,1.2,0,0,0-.49.68c-.07.19-.12,1.82-.17,4.88l-.1,8.52a142.66,142.66,0,0,0,12.42-11.46c1.05-1.09,1.58-1.86,1.58-2.32a.65.65,0,0,0-.27-.53,10.78,10.78,0,0,0-2.51-.72l-.55-.14V7.67c2.25.17,4.21.26,5.86.26,1.26,0,3.66-.09,7.18-.26V9.08a35.87,35.87,0,0,0-4,1.08,5,5,0,0,0-1.17.67L272,14.78l-6.51,5.94-3,2.61q2.33,2.48,7.76,7.58L278,38a6.17,6.17,0,0,0,1.6.94,51.14,51.14,0,0,0,5.27,1.31v1.41c-3.65-.18-6.18-.26-7.6-.26-1.19,0-4,.08-8.32.26V40.21a11.06,11.06,0,0,0,2.57-.75.67.67,0,0,0,.33-.53,1.41,1.41,0,0,0-.46-.85q-1.74-2-10.21-10l-3.52-3.39.05,12.27a4.36,4.36,0,0,0,.19,1.72,1.57,1.57,0,0,0,.89.62c.34.12,1.79.43,4.35.94v1.41c-2.71-.18-5.17-.26-7.35-.26s-4.81.08-8.18.26V40.21l1.15-.24q3.28-.48,3.81-1a2.72,2.72,0,0,0,.43-1.77c.11-2.85.16-6.67.16-11.44l-.11-13a9.59,9.59,0,0,0-.11-2,.78.78,0,0,0-.33-.42,13.13,13.13,0,0,0-3.94-1.06C248.4,9.26,248.05,9.19,247.58,9.08Z" transform="translate(-0.19 -6.95)"/><path d="M284.76,24.87A17.37,17.37,0,0,1,289.83,12a17.62,17.62,0,0,1,13-5q7.4,0,11.77,4.45T319,23.65q0,8.67-4.93,13.67t-13,5q-7.53,0-11.92-4.55T284.76,24.87Zm5.24-.71q0,7.9,3.46,11.87a11.12,11.12,0,0,0,8.75,4,10.7,10.7,0,0,0,6.19-1.84,11.19,11.19,0,0,0,4.09-5.4,21.36,21.36,0,0,0,1.39-7.87,20.18,20.18,0,0,0-1.77-9,11.82,11.82,0,0,0-4.38-5.11,11.86,11.86,0,0,0-12.25.34,10.88,10.88,0,0,0-4.15,5.43A21.69,21.69,0,0,0,290,24.16Z" transform="translate(-0.19 -6.95)"/><path d="M336.35,42.34h-1.58q-3.11-9.12-7.58-20.56-3.74-9.51-4.26-10.5a2.91,2.91,0,0,0-.86-1,18.75,18.75,0,0,0-3.57-1.21V7.67c3.45.17,5.71.26,6.8.26,1.54,0,3.81-.09,6.79-.26V9.08l-.65.17a9.67,9.67,0,0,0-2.76.92,1,1,0,0,0-.42.8,2.76,2.76,0,0,0,.07.53q.44,1.74,3.59,10.36l4.54,12.52q2.94-7.62,5.15-14.1,2.77-8.12,3-9a1.56,1.56,0,0,0,.05-.33.92.92,0,0,0-.36-.75A14.17,14.17,0,0,0,340.77,9V7.67l1.73.07c2.45.13,4,.19,4.73.19,1.36,0,3-.09,4.86-.26V9a11.57,11.57,0,0,0-3.16,1.13,5.44,5.44,0,0,0-1.38,2.15q-1.47,3.3-7.35,19.47Z" transform="translate(-0.19 -6.95)"/><path d="M365.06,7.09h1.51q3.23,8.31,7.94,18.83l5.58,12.18a3,3,0,0,0,.83,1,26.82,26.82,0,0,0,3.52,1.15v1.41c-2.9-.18-5-.26-6.41-.26s-3.8.08-7.18.26V40.21a12.66,12.66,0,0,0,3.37-1,1,1,0,0,0,.48-.84,5.43,5.43,0,0,0-.5-1.7l-2.43-5.83c-3.38,0-5.84-.05-7.38-.05l-6.55.05-2.52,6.05a7.27,7.27,0,0,0-.62,1.82.59.59,0,0,0,.3.51,14.28,14.28,0,0,0,2.79.73l.74.22v1.41c-2.73-.18-4.65-.26-5.77-.26-1.42,0-3.24.08-5.45.26V40.21a8.59,8.59,0,0,0,3-1.08,5.32,5.32,0,0,0,1.24-1.53q1.36-2.37,6.94-15.24Zm-6.31,21.39c2.22.07,3.81.1,4.76.1l7.34-.1L364.8,14.13Z" transform="translate(-0.19 -6.95)"/><path d="M1.15,67.88V66.47c3.16.17,6.59.26,10.31.26l10.67-.14a20.19,20.19,0,0,1,8.67,1.56,11.06,11.06,0,0,1,5,5,16.88,16.88,0,0,1,1.8,8,18.33,18.33,0,0,1-5.7,13.83q-5.7,5.46-15.29,5.46c-.36,0-1.82-.05-4.38-.14s-4-.13-4.49-.13q-2.33,0-6.63.29V99c2.6-.5,4.05-.79,4.34-.89a1.64,1.64,0,0,0,.64-.33,1.15,1.15,0,0,0,.26-.53,37.84,37.84,0,0,0,.17-4.07q.14-7.77.14-11.31L6.56,71.4l0-.82q0-1.18-.69-1.53A37.14,37.14,0,0,0,1.15,67.88ZM11.36,97.57a54.7,54.7,0,0,0,6.51.48,15.14,15.14,0,0,0,6.75-1.32,13.13,13.13,0,0,0,5.78-5.64,19.28,19.28,0,0,0,2-9.12,18.85,18.85,0,0,0-.66-5.15A10.56,10.56,0,0,0,30,73.1,10.23,10.23,0,0,0,25.77,70a19.89,19.89,0,0,0-7.47-1.09q-2.94,0-6.94.36-.13,6.28-.14,14.26Q11.22,91.9,11.36,97.57Z" transform="translate(-0.19 -6.95)"/><path d="M54.26,65.89h1.51Q59,74.2,63.71,84.72L69.29,96.9a2.87,2.87,0,0,0,.84,1A26.36,26.36,0,0,0,73.64,99v1.41c-2.9-.18-5-.26-6.41-.26s-3.79.08-7.18.26V99a12.8,12.8,0,0,0,3.38-1,1,1,0,0,0,.48-.84,5.25,5.25,0,0,0-.51-1.7L61,89.68c-3.38,0-5.84-.05-7.38-.05L47,89.68l-2.51,6a7,7,0,0,0-.63,1.82.59.59,0,0,0,.3.51,14.28,14.28,0,0,0,2.79.73l.74.22v1.41c-2.73-.18-4.65-.26-5.76-.26-1.42,0-3.24.08-5.46.26V99a8.51,8.51,0,0,0,3-1.08,5.32,5.32,0,0,0,1.25-1.53Q42.1,94,47.68,81.16ZM48,87.28c2.21.07,3.8.1,4.76.1l7.33-.1L54,72.93Z" transform="translate(-0.19 -6.95)"/><path d="M75,67.88V66.47q6.34.25,10.17.26c1.47,0,2.84,0,4.12,0q2.54-.09,3.51-.09,4.67,0,7,2.2a7.89,7.89,0,0,1,2.34,6,9.18,9.18,0,0,1-1.06,4.48,9.28,9.28,0,0,1-3.08,3.29,14.7,14.7,0,0,1-4.17,1.7l8,10.38a24.31,24.31,0,0,0,1.87,2.28,5.44,5.44,0,0,0,1.56.86A34.38,34.38,0,0,0,109.82,99v1.41c-2.52-.18-4.36-.26-5.5-.26a31.56,31.56,0,0,0-4.07.26q-1.08-1.8-2.92-4.51c-1.23-1.81-2-2.88-2.25-3.22a6.7,6.7,0,0,1-.45-.6l-5.27-7.22c-1.42,0-2.85-.14-4.3-.31l.19,12a1.54,1.54,0,0,0,.43,1.08,10.51,10.51,0,0,0,3.59,1c.28,0,.72.14,1.31.29v1.41c-2.88-.18-5.43-.26-7.63-.26-2.36,0-5,.08-7.92.26V99l1-.22A12.72,12.72,0,0,0,80,97.73a2.18,2.18,0,0,0,.54-1.5q0-.69.12-12.3l-.1-11.24a22.42,22.42,0,0,0-.13-3,.92.92,0,0,0-.47-.57,12.48,12.48,0,0,0-3.71-1Zm10,14.64a38.05,38.05,0,0,0,3.85.27q4.35,0,6.45-2a7,7,0,0,0,2.09-5.39,6.27,6.27,0,0,0-1.85-4.77,7.63,7.63,0,0,0-5.4-1.75c-.85,0-2.51.1-5,.29Z" transform="translate(-0.19 -6.95)"/><path d="M126.11,66.47v1.41c-.56.13-1,.22-1.24.26-2.12.37-3.35.72-3.69,1a3.28,3.28,0,0,0-.5,2.19v.84l-.12,9.62.07,14a3.12,3.12,0,0,0,.49,2.13c.33.3,1.45.57,3.37.79.36,0,.9.14,1.6.29v1.41c-2.57-.18-5-.26-7.42-.26s-5.15.08-8.08.26V99a7.77,7.77,0,0,1,1-.24c2.26-.37,3.56-.71,3.89-1a3.66,3.66,0,0,0,.49-2.36l0-1.19.07-8.78q0-13.55-.07-15a1.72,1.72,0,0,0-.51-1.22,10.88,10.88,0,0,0-3.61-1c-.29-.06-.71-.17-1.26-.31V66.47q5.19.25,8.12.26Q122,66.73,126.11,66.47Z" transform="translate(-0.19 -6.95)"/><path d="M145.18,65.89h1.51q3.23,8.31,7.94,18.83l5.58,12.18a3,3,0,0,0,.83,1A26.82,26.82,0,0,0,164.56,99v1.41c-2.9-.18-5-.26-6.41-.26s-3.8.08-7.18.26V99a12.8,12.8,0,0,0,3.38-1,1.05,1.05,0,0,0,.47-.84,5.16,5.16,0,0,0-.5-1.7l-2.43-5.83c-3.38,0-5.84-.05-7.38-.05l-6.55.05-2.52,6a7.27,7.27,0,0,0-.62,1.82.59.59,0,0,0,.3.51,14.28,14.28,0,0,0,2.79.73l.74.22v1.41c-2.73-.18-4.65-.26-5.77-.26-1.42,0-3.23.08-5.45.26V99a8.51,8.51,0,0,0,3-1.08,5.32,5.32,0,0,0,1.24-1.53Q133,94,138.6,81.16Zm-6.3,21.39c2.21.07,3.8.1,4.75.1l7.34-.1-6.05-14.35Z" transform="translate(-0.19 -6.95)"/></g></g></svg>