<svg xmlns="http://www.w3.org/2000/svg" viewBox="0 0 326.23 94.33"><g id="Layer_2" data-name="Layer 2"><g id="Layer_1-2" data-name="Layer 1"><path d="M3.62,41.92H0L13.52,7.08h4.11L31.1,41.92H27.44L23.28,31H7.78ZM22.07,27.85l-6.59-17.5L9,27.85Z" transform="translate(0 -6.39)"/><path d="M56.87,37.75,56.46,7.08h3.38V41.92H55.72L36.61,11.2,37,41.92H33.62V7.08h4.12Z" transform="translate(0 -6.39)"/><path d="M66.39,7.08H76.3A34.65,34.65,0,0,1,80,7.27a18.64,18.64,0,0,1,3.13.63,13,13,0,0,1,4.92,2.6,17.12,17.12,0,0,1,4.63,6.14,18.54,18.54,0,0,1,1.67,7.79,19.28,19.28,0,0,1-1.82,8.42A15.67,15.67,0,0,1,87.42,39a14.46,14.46,0,0,1-4.79,2.23,33.77,33.77,0,0,1-7.86.67H66.39Zm3.38,3.33V38.64h7.1q6.61,0,10.22-3.73T90.7,24.33A15.92,15.92,0,0,0,89.48,18,13.15,13.15,0,0,0,86,13.16a10.36,10.36,0,0,0-3.78-2.1,21.81,21.81,0,0,0-6.15-.65Z" transform="translate(0 -6.39)"/><path d="M102,10.5V41.92H98.6V7.08H108a21.69,21.69,0,0,1,5,.46A10.07,10.07,0,0,1,119.6,13a11.45,11.45,0,0,1,1.23,5.19,10.6,10.6,0,0,1-2.42,7,9.94,9.94,0,0,1-2.74,2.34,6.58,6.58,0,0,1-3.27.84l8.43,13.61h-4.07l-10.34-16.8h3.3a7.54,7.54,0,0,0,5.36-1.93,6.51,6.51,0,0,0,2.08-5,8.44,8.44,0,0,0-.62-3.3,7.37,7.37,0,0,0-1.89-2.68,5.76,5.76,0,0,0-2.49-1.33,22.89,22.89,0,0,0-5.14-.4Z" transform="translate(0 -6.39)"/><path d="M124.56,24.27a17.53,17.53,0,0,1,1.4-6.94,17.88,17.88,0,0,1,4-5.9,17.1,17.1,0,0,1,12.3-5,17.67,17.67,0,0,1,6.75,1.27,18,18,0,0,1,5.74,3.82,17.42,17.42,0,0,1,4,5.82,18.08,18.08,0,0,1,1.36,7A19.45,19.45,0,0,1,159,31.05a17.67,17.67,0,0,1-3.45,5.66,18.08,18.08,0,0,1-6,4.39,17.76,17.76,0,0,1-7.26,1.49,16.84,16.84,0,0,1-12.59-5.27A18,18,0,0,1,124.56,24.27Zm3.59.05A14.76,14.76,0,0,0,132.29,35a13.59,13.59,0,0,0,10.21,4.31,13.26,13.26,0,0,0,10-4.35,15,15,0,0,0,4.1-10.71A14.1,14.1,0,0,0,152.41,14a14.1,14.1,0,0,0-14.84-3.48A12.92,12.92,0,0,0,133.48,13a15.15,15.15,0,0,0-5.33,11.35Z" transform="translate(0 -6.39)"/><path d="M188.06,37.75l-.41-30.67H191V41.92h-4.11L167.79,11.2l.38,30.72H164.8V7.08h4.12Z" transform="translate(0 -6.39)"/><path d="M201,41.92h-3.42V7.08H201Z" transform="translate(0 -6.39)"/><path d="M210.76,31.15V41.92h-3.37V7.08h3.37V26.44L226.89,7.08H231L216.9,23.94l13.82,18h-4.2L214.69,26.48Z" transform="translate(0 -6.39)"/><path d="M232,24.27a17.71,17.71,0,0,1,1.4-6.94,18.07,18.07,0,0,1,4.06-5.9,17.05,17.05,0,0,1,12.3-5,17.58,17.58,0,0,1,6.74,1.27,17.94,17.94,0,0,1,5.75,3.82,17.42,17.42,0,0,1,4,5.82,18.07,18.07,0,0,1,1.35,7,19.22,19.22,0,0,1-1.15,6.78A17.46,17.46,0,0,1,263,36.71a18.18,18.18,0,0,1-6,4.39,17.76,17.76,0,0,1-7.26,1.49,16.88,16.88,0,0,1-12.6-5.27A18,18,0,0,1,232,24.27Zm3.59.05A14.76,14.76,0,0,0,239.71,35a13.63,13.63,0,0,0,10.22,4.31,13.23,13.23,0,0,0,10-4.35A15,15,0,0,0,264,24.23,14.06,14.06,0,0,0,259.83,14,14.09,14.09,0,0,0,245,10.53,12.81,12.81,0,0,0,240.91,13a14.72,14.72,0,0,0-3.9,5.11A14.51,14.51,0,0,0,235.57,24.32Z" transform="translate(0 -6.39)"/><path d="M268.12,7.08h3.42l11,29.71L293.64,7.08h3.42L284,41.92h-2.7Z" transform="translate(0 -6.39)"/><path d="M298.74,41.92h-3.62L308.64,7.08h4.12l13.47,34.84h-3.67L318.41,31h-15.5ZM317.2,27.85l-6.59-17.5-6.54,17.5Z" transform="translate(0 -6.39)"/><path d="M4.45,65.88h9.91a32.36,32.36,0,0,1,3.74.2,17.41,17.41,0,0,1,3.12.62,12.88,12.88,0,0,1,4.93,2.61,17.11,17.11,0,0,1,4.63,6.13,18.53,18.53,0,0,1,1.66,7.79,19.27,19.27,0,0,1-1.81,8.42,15.76,15.76,0,0,1-5.15,6.17,14.61,14.61,0,0,1-4.8,2.23,33.77,33.77,0,0,1-7.86.67H4.45Zm3.37,3.33V97.44h7.11q6.6,0,10.22-3.73t3.61-10.58a16.1,16.1,0,0,0-1.22-6.29A13.24,13.24,0,0,0,24.05,72a10.36,10.36,0,0,0-3.78-2.1,21.9,21.9,0,0,0-6.15-.65Z" transform="translate(0 -6.39)"/><path d="M36.3,100.72H32.68L46.2,65.88h4.12l13.47,34.84H60.12L56,89.79H40.47ZM54.75,86.65l-6.58-17.5-6.54,17.5Z" transform="translate(0 -6.39)"/><path d="M69.29,69.31v31.41H65.92V65.88h9.35a21.69,21.69,0,0,1,5,.46,10.12,10.12,0,0,1,6.65,5.43A11.44,11.44,0,0,1,88.14,77a10.59,10.59,0,0,1-2.41,7A9.83,9.83,0,0,1,83,86.27a6.52,6.52,0,0,1-3.26.84l8.43,13.61H84.08L73.74,83.92H77A7.55,7.55,0,0,0,82.4,82a6.5,6.5,0,0,0,2.08-5,8.62,8.62,0,0,0-.62-3.3A7.62,7.62,0,0,0,82,71a5.76,5.76,0,0,0-2.49-1.33,23,23,0,0,0-5.14-.39Z" transform="translate(0 -6.39)"/><path d="M97,100.72H93.6V65.88H97Z" transform="translate(0 -6.39)"/><path d="M102.67,100.72H99.05l13.52-34.84h4.12l13.47,34.84h-3.67l-4.15-10.93h-15.5Zm18.46-14.07-6.59-17.5L108,86.65Z" transform="translate(0 -6.39)"/></g></g></svg>